HIERARCHY
ROOT Hips
{
	OFFSET 0.000000 87.230942 0.000000
	CHANNELS 6 Xposition Yposition Zposition Xrotation Yrotation Zrotation
	JOINT Pelvis
	{
		OFFSET 0.000000 0.000000 0.000000
		CHANNELS 3 Xrotation Yrotation Zrotation
		JOINT LeftUpLeg
		{
			OFFSET 12.017000 -9.376404 -2.439400
			CHANNELS 3 Xrotation Yrotation Zrotation
			JOINT LeftLeg
			{
				OFFSET -0.007312 -32.846973 2.110600
				CHANNELS 3 Xrotation Yrotation Zrotation
				JOINT LeftFoot
				{
					OFFSET 0.007312 -32.065170 -0.570400
					CHANNELS 3 Xrotation Yrotation Zrotation
					JOINT LeftToeBase
					{
						OFFSET 0.728300 -11.045900 13.180700
						CHANNELS 3 Xrotation Yrotation Zrotation
						End Site
						{
							OFFSET 0.000000 17.212589 0.000000
						}
					}
				}
				JOINT LeftPantLeg
				{
					OFFSET 0.002788 -16.709013 -3.143600
					CHANNELS 3 Xrotation Yrotation Zrotation
					End Site
					{
						OFFSET -0.605125 24.528742 0.000000
					}
				}
			}
			JOINT Left_Butt
			{
				OFFSET -6.630234 1.326584 -3.183700
				CHANNELS 3 Xrotation Yrotation Zrotation
				End Site
				{
					OFFSET -0.498041 20.188049 0.000000
				}
			}
		}
		JOINT RightUpLeg
		{
			OFFSET -11.717000 -9.376404 -2.439400
			CHANNELS 3 Xrotation Yrotation Zrotation
			JOINT RightLeg
			{
				OFFSET -0.003241 -32.846912 2.110600
				CHANNELS 3 Xrotation Yrotation Zrotation
				JOINT RightFoot
				{
					OFFSET 0.003241 -32.065136 -0.570500
					CHANNELS 3 Xrotation Yrotation Zrotation
					JOINT RightToeBase
					{
						OFFSET -0.728300 -11.045901 13.180700
						CHANNELS 3 Xrotation Yrotation Zrotation
						End Site
						{
							OFFSET 0.000000 17.212593 0.000000
						}
					}
				}
				JOINT RightPantLeg
				{
					OFFSET 0.008142 -16.708982 -3.143700
					CHANNELS 3 Xrotation Yrotation Zrotation
					End Site
					{
						OFFSET 0.605088 24.528715 0.000000
					}
				}
			}
			JOINT Right_Butt
			{
				OFFSET 6.630732 1.326584 -3.183700
				CHANNELS 3 Xrotation Yrotation Zrotation
				End Site
				{
					OFFSET 0.498015 20.188240 0.000000
				}
			}
		}
	}
	JOINT Spine
	{
		OFFSET -0.062400 7.848404 3.918300
		CHANNELS 3 Xrotation Yrotation Zrotation
		JOINT Spine1
		{
			OFFSET -0.072800 11.422302 0.713400
			CHANNELS 3 Xrotation Yrotation Zrotation
			JOINT Spine2
			{
				OFFSET -0.083200 13.054001 -1.931600
				CHANNELS 3 Xrotation Yrotation Zrotation
				JOINT Neck
				{
					OFFSET -0.092200 14.121796 -5.138800
					CHANNELS 3 Xrotation Yrotation Zrotation
					JOINT Head
					{
						OFFSET 0.000200 10.447403 -0.842000
						CHANNELS 3 Xrotation Yrotation Zrotation
						JOINT Visor
						{
							OFFSET 0.457100 25.671204 16.550400
							CHANNELS 3 Xrotation Yrotation Zrotation
							End Site
							{
								OFFSET 0.000000 26.061493 0.000000
							}
						}
						JOINT HairMidA
						{
							OFFSET 0.459400 31.585403 8.437400
							CHANNELS 3 Xrotation Yrotation Zrotation
							End Site
							{
								OFFSET 0.000000 26.061493 0.000000
							}
						}
						JOINT HairMidB
						{
							OFFSET 0.464000 33.309204 -8.389700
							CHANNELS 3 Xrotation Yrotation Zrotation
							End Site
							{
								OFFSET 0.000000 26.061493 0.000000
							}
						}
						JOINT HairMidC
						{
							OFFSET 0.466600 27.991196 -17.375099
							CHANNELS 3 Xrotation Yrotation Zrotation
							End Site
							{
								OFFSET 0.000000 26.061493 0.000000
							}
						}
						JOINT HairMidD
						{
							OFFSET 0.467700 17.888092 -21.169500
							CHANNELS 3 Xrotation Yrotation Zrotation
							End Site
							{
								OFFSET 0.000000 26.061493 0.000000
							}
						}
						JOINT HairMidE
						{
							OFFSET 5.325700 3.514603 -14.369699
							CHANNELS 3 Xrotation Yrotation Zrotation
							End Site
							{
								OFFSET 0.000000 26.061493 0.000000
							}
						}
						JOINT HairMidF
						{
							OFFSET -4.394100 3.514603 -14.372400
							CHANNELS 3 Xrotation Yrotation Zrotation
							End Site
							{
								OFFSET 0.000000 26.061493 0.000000
							}
						}
						JOINT HairLeftA
						{
							OFFSET 15.319900 25.746506 2.623300
							CHANNELS 3 Xrotation Yrotation Zrotation
							End Site
							{
								OFFSET 0.000000 26.061493 0.000000
							}
						}
						JOINT HairLeftB
						{
							OFFSET 12.619500 29.289398 -8.731499
							CHANNELS 3 Xrotation Yrotation Zrotation
							End Site
							{
								OFFSET 0.000000 26.061493 0.000000
							}
						}
						JOINT HairLeftC
						{
							OFFSET 15.714800 15.959900 2.909800
							CHANNELS 3 Xrotation Yrotation Zrotation
							End Site
							{
								OFFSET 0.000000 26.061493 0.000000
							}
						}
						JOINT HairLeftD
						{
							OFFSET 16.101700 18.437408 -7.553200
							CHANNELS 3 Xrotation Yrotation Zrotation
							End Site
							{
								OFFSET 0.000000 26.061493 0.000000
							}
						}
						JOINT HairLeftE
						{
							OFFSET 9.731900 17.915009 -18.316799
							CHANNELS 3 Xrotation Yrotation Zrotation
							End Site
							{
								OFFSET 0.000000 26.061493 0.000000
							}
						}
						JOINT HairLeftF
						{
							OFFSET 11.204300 4.953598 -9.668100
							CHANNELS 3 Xrotation Yrotation Zrotation
							End Site
							{
								OFFSET 0.000000 26.061493 0.000000
							}
						}
						JOINT HairRightA
						{
							OFFSET -14.397900 25.746307 2.615100
							CHANNELS 3 Xrotation Yrotation Zrotation
							End Site
							{
								OFFSET 0.000000 26.061493 0.000000
							}
						}
						JOINT HairRightB
						{
							OFFSET -11.691200 29.289200 -8.738199
							CHANNELS 3 Xrotation Yrotation Zrotation
							End Site
							{
								OFFSET 0.000000 26.061493 0.000000
							}
						}
						JOINT HairRightC
						{
							OFFSET -14.792900 15.959702 2.901400
							CHANNELS 3 Xrotation Yrotation Zrotation
							End Site
							{
								OFFSET 0.000000 26.061493 0.000000
							}
						}
						JOINT HairRightD
						{
							OFFSET -15.174000 18.437195 -7.561900
							CHANNELS 3 Xrotation Yrotation Zrotation
							End Site
							{
								OFFSET 0.000000 26.061493 0.000000
							}
						}
						JOINT HairRightE
						{
							OFFSET -8.798200 17.914902 -18.322001
							CHANNELS 3 Xrotation Yrotation Zrotation
							End Site
							{
								OFFSET 0.000000 26.061493 0.000000
							}
						}
						JOINT HairRightF
						{
							OFFSET -10.275200 4.953506 -9.674099
							CHANNELS 3 Xrotation Yrotation Zrotation
							End Site
							{
								OFFSET 0.000000 26.061493 0.000000
							}
						}
					}
				}
				JOINT LeftShoulder
				{
					OFFSET 5.133500 7.341202 -1.867600
					CHANNELS 3 Xrotation Yrotation Zrotation
					JOINT LeftArm
					{
						OFFSET 8.072663 0.936867 -2.176600
						CHANNELS 3 Xrotation Yrotation Zrotation
						JOINT LeftForeArm
						{
							OFFSET 31.271999 0.000000 0.000000
							CHANNELS 3 Xrotation Yrotation Zrotation
							JOINT LeftHand
							{
								OFFSET 31.771030 0.000000 0.000000
								CHANNELS 3 Xrotation Yrotation Zrotation
								JOINT LeftHandThumb1
								{
									OFFSET 2.886520 -2.557846 4.416640
									CHANNELS 3 Xrotation Yrotation Zrotation
									JOINT LeftHandThumb2
									{
										OFFSET 2.371025 -1.368912 1.368911
										CHANNELS 3 Xrotation Yrotation Zrotation
										JOINT LeftHandThumb3
										{
											OFFSET 2.243378 -1.295212 1.295213
											CHANNELS 3 Xrotation Yrotation Zrotation
											End Site
											{
												OFFSET -0.332611 2.876945 0.020015
											}
										}
									}
								}
								JOINT LeftHandIndex1
								{
									OFFSET 8.568985 -0.641945 3.119977
									CHANNELS 3 Xrotation Yrotation Zrotation
									JOINT LeftHandIndex2
									{
										OFFSET 3.348503 0.000000 0.000000
										CHANNELS 3 Xrotation Yrotation Zrotation
										JOINT LeftHandIndex3
										{
											OFFSET 3.314552 0.000000 0.000000
											CHANNELS 3 Xrotation Yrotation Zrotation
											End Site
											{
												OFFSET -1.032898 3.075485 0.678796
											}
										}
									}
								}
								JOINT LeftHandMiddle1
								{
									OFFSET 8.124603 0.000000 0.000000
									CHANNELS 3 Xrotation Yrotation Zrotation
									JOINT LeftHandMiddle2
									{
										OFFSET 4.166275 0.000000 0.000000
										CHANNELS 3 Xrotation Yrotation Zrotation
										JOINT LeftHandMiddle3
										{
											OFFSET 3.018135 0.000000 0.000000
											CHANNELS 3 Xrotation Yrotation Zrotation
											End Site
											{
												OFFSET -1.032700 2.767982 0.617226
											}
										}
									}
								}
								JOINT LeftHandRing1
								{
									OFFSET 8.571686 -0.031357 -2.884048
									CHANNELS 3 Xrotation Yrotation Zrotation
									JOINT LeftHandRing2
									{
										OFFSET 3.671181 0.000000 0.000000
										CHANNELS 3 Xrotation Yrotation Zrotation
										JOINT LeftHandRing3
										{
											OFFSET 2.728851 0.000000 0.000000
											CHANNELS 3 Xrotation Yrotation Zrotation
											End Site
											{
												OFFSET -0.815796 2.539223 0.577389
											}
										}
									}
								}
								JOINT LeftHandPinky1
								{
									OFFSET 7.854515 -0.675232 -5.213020
									CHANNELS 3 Xrotation Yrotation Zrotation
									JOINT LeftHandPinky2
									{
										OFFSET 3.068596 0.000000 0.000000
										CHANNELS 3 Xrotation Yrotation Zrotation
										JOINT LeftHandPinky3
										{
											OFFSET 2.396042 0.000000 0.000000
											CHANNELS 3 Xrotation Yrotation Zrotation
											End Site
											{
												OFFSET -0.524597 2.267998 0.567429
											}
										}
									}
								}
							}
							JOINT LeftSleeve
							{
								OFFSET 19.684509 -0.200119 0.476146
								CHANNELS 3 Xrotation Yrotation Zrotation
								End Site
								{
									OFFSET -0.031017 25.731133 -0.002868
								}
							}
						}
					}
				}
				JOINT RightShoulder
				{
					OFFSET -4.395900 7.341202 -1.870200
					CHANNELS 3 Xrotation Yrotation Zrotation
					JOINT RightArm
					{
						OFFSET -8.071453 0.936867 -2.181100
						CHANNELS 3 Xrotation Yrotation Zrotation
						JOINT RightForeArm
						{
							OFFSET -31.272011 0.000000 0.000000
							CHANNELS 3 Xrotation Yrotation Zrotation
							JOINT RightHand
							{
								OFFSET -31.771019 0.000000 0.000000
								CHANNELS 3 Xrotation Yrotation Zrotation
								JOINT RightHandThumb1
								{
									OFFSET -2.886520 -2.557808 4.416626
									CHANNELS 3 Xrotation Yrotation Zrotation
									JOINT RightHandThumb2
									{
										OFFSET -2.371056 -1.368927 1.368928
										CHANNELS 3 Xrotation Yrotation Zrotation
										JOINT RightHandThumb3
										{
											OFFSET -2.243362 -1.295204 1.295206
											CHANNELS 3 Xrotation Yrotation Zrotation
											End Site
											{
												OFFSET 0.332642 2.876938 0.020047
											}
										}
									}
								}
								JOINT RightHandIndex1
								{
									OFFSET -8.568993 -0.641953 3.120017
									CHANNELS 3 Xrotation Yrotation Zrotation
									JOINT RightHandIndex2
									{
										OFFSET -3.348518 0.000000 0.000000
										CHANNELS 3 Xrotation Yrotation Zrotation
										JOINT RightHandIndex3
										{
											OFFSET -3.314552 0.000000 0.000000
											CHANNELS 3 Xrotation Yrotation Zrotation
											End Site
											{
												OFFSET 1.032898 3.075478 0.678804
											}
										}
									}
								}
								JOINT RightHandMiddle1
								{
									OFFSET -8.124588 0.000000 0.000000
									CHANNELS 3 Xrotation Yrotation Zrotation
									JOINT RightHandMiddle2
									{
										OFFSET -4.166275 0.000000 0.000000
										CHANNELS 3 Xrotation Yrotation Zrotation
										JOINT RightHandMiddle3
										{
											OFFSET -3.018097 0.000000 0.000000
											CHANNELS 3 Xrotation Yrotation Zrotation
											End Site
											{
												OFFSET 1.032700 2.767937 0.617197
											}
										}
									}
								}
								JOINT RightHandRing1
								{
									OFFSET -8.571747 -0.031349 -2.884061
									CHANNELS 3 Xrotation Yrotation Zrotation
									JOINT RightHandRing2
									{
										OFFSET -3.671204 0.000000 0.000000
										CHANNELS 3 Xrotation Yrotation Zrotation
										JOINT RightHandRing3
										{
											OFFSET -2.728874 0.000000 0.000000
											CHANNELS 3 Xrotation Yrotation Zrotation
											End Site
											{
												OFFSET 0.815804 2.539261 0.577413
											}
										}
									}
								}
								JOINT RightHandPinky1
								{
									OFFSET -7.854561 -0.675247 -5.212970
									CHANNELS 3 Xrotation Yrotation Zrotation
									JOINT RightHandPinky2
									{
										OFFSET -3.068550 0.000000 0.000000
										CHANNELS 3 Xrotation Yrotation Zrotation
										JOINT RightHandPinky3
										{
											OFFSET -2.395981 0.000000 0.000000
											CHANNELS 3 Xrotation Yrotation Zrotation
											End Site
											{
												OFFSET 0.524605 2.267952 0.567413
											}
										}
									}
								}
							}
							JOINT RightSleeve
							{
								OFFSET -19.684753 -0.200165 0.476065
								CHANNELS 3 Xrotation Yrotation Zrotation
								End Site
								{
									OFFSET 0.031342 25.731255 -0.002917
								}
							}
						}
					}
				}
				JOINT Hood
				{
					OFFSET 0.369700 14.447800 -5.317800
					CHANNELS 3 Xrotation Yrotation Zrotation
					JOINT Hood1
					{
						OFFSET 0.001700 -5.553802 -5.895100
						CHANNELS 3 Xrotation Yrotation Zrotation
						JOINT Hood2
						{
							OFFSET -0.000200 -8.380501 0.763600
							CHANNELS 3 Xrotation Yrotation Zrotation
							End Site
							{
								OFFSET 0.000000 8.415215 0.000000
							}
						}
					}
				}
				JOINT Left_Breast
				{
					OFFSET 5.682500 3.120102 3.188800
					CHANNELS 3 Xrotation Yrotation Zrotation
					End Site
					{
						OFFSET 0.000000 10.528564 0.000000
					}
				}
				JOINT Right_Breast
				{
					OFFSET -4.947600 3.120102 3.185900
					CHANNELS 3 Xrotation Yrotation Zrotation
					End Site
					{
						OFFSET 0.000000 10.528564 0.000000
					}
				}
				JOINT Whistle
				{
					OFFSET 0.368200 11.471298 0.095400
					CHANNELS 3 Xrotation Yrotation Zrotation
					JOINT Whistle1
					{
						OFFSET -0.002000 -6.349899 7.479800
						CHANNELS 3 Xrotation Yrotation Zrotation
						JOINT Whistle2
						{
							OFFSET -0.001300 -8.217598 4.717600
							CHANNELS 3 Xrotation Yrotation Zrotation
							End Site
							{
								OFFSET 0.000000 9.475479 0.000000
							}
						}
					}
				}
			}
		}
		JOINT Belly
		{
			OFFSET 0.212400 1.593002 3.163700
			CHANNELS 3 Xrotation Yrotation Zrotation
			End Site
			{
				OFFSET 0.000000 7.496635 0.000000
			}
		}
	}
	JOINT FitGrandmaFacialAnim_Joint
	{
		OFFSET 1.150000 -86.211197 -1.220100
		CHANNELS 3 Xrotation Yrotation Zrotation
		End Site
		{
			OFFSET 0.000000 31.666618 0.000000
		}
	}
}
MOTION
Frames: 4
Frame Time: 0.016667
2.018684 73.484917 1.535847 -3.084966 -42.953024 17.064768 0.000001 -0.000001 0.000002 -18.432543 30.738385 -5.422940 57.317281 2.940079 3.312865 -28.017373 20.258766 -6.242302 -0.000000 -0.000000 -0.000000 -0.000001 -0.000001 0.000001 -0.000001 -0.000000 -0.000000 -32.716432 8.002373 -38.250077 70.403104 5.819155 -9.307454 -32.567445 -8.549630 21.074603 0.000000 0.000002 0.000000 -0.000001 0.000001 0.000002 -0.000002 -0.000001 0.000002 0.367738 -1.889219 7.774991 0.027304 -1.386081 5.062934 -0.080028 -1.272385 5.054164 -11.424512 3.372350 7.860915 -19.486294 29.446264 -6.823220 0.000000 0.000002 0.000001 0.000000 0.000002 0.000001 0.000000 0.000002 0.000001 0.000000 0.000002 0.000001 0.000000 0.000002 0.000001 0.000000 0.000002 0.000001 0.000000 0.000002 0.000001 0.000000 0.000002 0.000001 0.000000 0.000002 0.000001 0.000000 0.000002 0.000001 0.000000 0.000002 0.000001 0.000000 0.000002 0.000001 0.000000 0.000002 0.000001 0.000000 0.000002 0.000001 0.000000 0.000002 0.000001 0.000000 0.000002 0.000001 0.000000 0.000002 0.000001 0.000000 0.000002 0.000001 0.000000 0.000002 0.000001 -0.548178 2.093924 14.135934 -33.452067 -33.141987 -47.500769 -0.000065 -87.864428 -0.000056 -23.599350 -10.877261 -3.087987 14.035332 -26.979152 7.263431 13.226132 36.584887 -28.242989 0.000000 -0.000000 0.000002 0.201888 1.658365 -13.881104 0.378667 2.256061 -19.053514 0.000000 -0.000002 -0.000002 0.201424 1.656500 -13.865108 0.379295 2.257883 -19.069521 -0.000003 0.000001 -0.000005 0.201889 1.658370 -13.881100 0.378669 2.256079 -19.053513 0.000000 0.000000 -0.000001 1.160818 5.598144 -13.431389 0.380576 -1.801565 -19.536759 0.000000 -0.000000 -0.000005 -0.000000 0.000000 0.000000 -0.011250 -5.892446 7.391181 118.821167 72.028142 -83.805970 -0.000012 25.801444 0.000022 -19.295699 3.278938 -3.516595 40.606608 -3.110612 26.124232 -37.849517 -44.265005 -46.874953 0.000001 -0.000002 0.000000 3.635319 -6.110982 61.464449 7.728640 -6.904487 96.464428 -0.000003 -0.000004 0.000002 3.635327 -6.110987 61.464449 7.728616 -6.904464 96.464449 0.000003 0.000001 -0.000003 3.635340 -6.111005 61.464449 7.728631 -6.904462 96.464442 -0.000000 -0.000002 -0.000001 3.635351 -6.111015 61.464428 7.728581 -6.904431 96.464449 -0.000001 -0.000003 0.000004 0.000002 -0.000000 0.000000 -0.000000 -0.000001 -0.000003 -0.000000 -0.000001 -0.000003 -0.000000 -0.000001 -0.000003 -0.000000 -0.000001 -0.000003 -0.000000 -0.000001 -0.000003 -0.000000 -0.000001 -0.000003 -0.000000 0.000004 0.000000 -0.000000 0.000004 0.000000 0.000000 0.000001 -0.000003 0.000001 -0.000001 0.000002 
2.351196 73.701958 1.645439 -2.248979 -42.485102 17.650580 -0.000000 -0.000002 0.000001 -18.899641 30.084705 -5.957669 56.600757 3.146612 2.751979 -27.673401 20.280013 -5.713666 -0.000000 0.000000 -0.000000 0.000002 -0.000000 0.000000 -0.000004 -0.000001 -0.000001 -33.553656 8.022668 -37.991425 69.789814 5.587316 -9.318733 -31.864294 -8.152692 21.074595 0.000000 0.000000 -0.000000 0.000001 0.000002 0.000001 0.000001 0.000002 0.000003 0.410028 -1.612420 7.760983 0.080687 -1.191918 5.048748 -0.026330 -1.085815 5.036029 -11.396559 3.371368 7.365472 -19.078925 28.735589 -7.123460 0.000003 0.000000 -0.000000 0.000003 0.000000 -0.000000 0.000003 0.000000 -0.000000 0.000003 0.000000 -0.000000 0.000003 0.000000 -0.000000 0.000003 0.000000 -0.000000 0.000003 0.000000 -0.000000 0.000003 0.000000 -0.000000 0.000003 0.000000 -0.000000 0.000003 0.000000 -0.000000 0.000003 0.000000 -0.000000 0.000003 0.000000 -0.000000 0.000003 0.000000 -0.000000 0.000003 0.000000 -0.000000 0.000003 0.000000 -0.000000 0.000003 0.000000 -0.000000 0.000003 0.000000 -0.000000 0.000003 0.000000 -0.000000 0.000003 0.000000 -0.000000 -0.621171 2.423851 13.794277 -32.468359 -33.363739 -47.016635 0.000698 -89.505258 0.000548 -24.397907 -11.122529 -2.975579 14.573614 -27.004445 6.829629 13.798556 36.351305 -28.336086 0.000001 0.000002 -0.000000 0.215242 1.711475 -14.335247 0.390032 2.288679 -19.340149 0.000000 -0.000000 -0.000001 0.214765 1.709611 -14.319251 0.390672 2.290500 -19.356164 0.000000 0.000001 -0.000003 0.215242 1.711485 -14.335239 0.390033 2.288694 -19.340145 -0.000000 0.000001 0.000001 1.205574 5.643529 -13.888373 0.392216 -1.769038 -19.822563 -0.000000 0.000000 0.000004 0.000001 0.000000 0.000001 -0.002588 -5.888128 7.492395 118.408569 71.656013 -83.809262 0.000005 25.428881 -0.000015 -19.616669 4.100315 -3.061036 40.606608 -3.110614 26.124230 -37.849517 -44.265005 -46.874953 -0.000001 -0.000001 -0.000001 3.635313 -6.110982 61.464449 7.728640 -6.904483 96.464435 -0.000001 -0.000003 0.000004 3.635324 -6.110986 61.464449 7.728618 -6.904462 96.464449 -0.000004 -0.000002 0.000002 3.635338 -6.111004 61.464449 7.728625 -6.904457 96.464442 0.000001 -0.000001 -0.000001 3.635350 -6.111017 61.464428 7.728579 -6.904429 96.464449 -0.000002 -0.000001 -0.000001 -0.000001 0.000000 -0.000000 0.000000 -0.000001 -0.000001 0.000000 -0.000001 -0.000001 0.000000 -0.000001 -0.000001 0.000000 -0.000001 -0.000001 0.000000 -0.000001 -0.000001 0.000000 -0.000001 -0.000001 -0.000001 0.000002 0.000001 -0.000001 0.000002 0.000001 -0.000000 0.000001 -0.000001 -0.000000 -0.000002 0.000001 
2.679586 73.991196 1.730419 -1.358550 -42.056016 18.250651 -0.000001 -0.000001 0.000001 -19.273416 29.625724 -6.488214 55.601230 3.387274 2.292588 -27.160857 20.157640 -5.232768 -0.000000 -0.000000 0.000000 -0.000000 0.000000 0.000001 -0.000001 -0.000002 -0.000001 -34.591268 7.843408 -37.633649 69.076852 5.286111 -9.359752 -31.134499 -7.398912 20.938823 -0.000000 -0.000002 0.000000 0.000001 0.000001 -0.000000 0.000000 -0.000001 -0.000001 0.463353 -1.323772 7.727660 0.140022 -0.990051 5.027507 0.034599 -0.892057 5.011684 -11.378204 3.392040 6.943747 -18.730001 28.242395 -7.478152 0.000001 0.000000 -0.000001 0.000001 0.000000 -0.000001 0.000001 0.000000 -0.000001 0.000001 0.000000 -0.000001 0.000001 0.000000 -0.000001 0.000001 0.000000 -0.000001 0.000001 0.000000 -0.000001 0.000001 0.000000 -0.000001 0.000001 0.000000 -0.000001 0.000001 0.000000 -0.000001 0.000001 0.000000 -0.000001 0.000001 0.000000 -0.000001 0.000001 0.000000 -0.000001 0.000001 0.000000 -0.000001 0.000001 0.000000 -0.000001 0.000001 0.000000 -0.000001 0.000001 0.000000 -0.000001 0.000001 0.000000 -0.000001 0.000001 0.000000 -0.000001 -0.713343 2.845078 13.378916 -31.471753 -33.569451 -46.626242 0.003089 -90.797004 0.003253 -24.660337 -11.610459 -3.034250 15.084980 -27.036523 6.348046 14.365805 36.116825 -28.425000 0.000001 0.000002 -0.000000 0.228964 1.764276 -14.787764 0.401519 2.321121 -19.625744 0.000000 0.000000 -0.000001 0.228470 1.762416 -14.771766 0.402167 2.322937 -19.641744 -0.000001 0.000000 -0.000005 0.228965 1.764287 -14.787768 0.401520 2.321136 -19.625737 0.000000 0.000002 0.000001 1.250536 5.688380 -14.343763 0.403973 -1.736700 -20.107344 0.000001 -0.000003 -0.000001 -0.000000 0.000000 -0.000001 0.007037 -5.858271 7.548156 118.019631 71.112487 -83.953461 -0.000008 25.056458 0.000019 -20.278280 5.167635 -2.331179 40.606608 -3.110613 26.124229 -37.849507 -44.265001 -46.874960 0.000000 -0.000000 -0.000001 3.635321 -6.110982 61.464449 7.728637 -6.904488 96.464435 -0.000001 -0.000001 0.000003 3.635327 -6.110985 61.464456 7.728609 -6.904462 96.464449 0.000004 0.000001 -0.000001 3.635342 -6.111003 61.464449 7.728627 -6.904468 96.464442 0.000002 0.000000 0.000001 3.635352 -6.111014 61.464435 7.728577 -6.904427 96.464449 -0.000000 0.000001 0.000001 -0.000003 -0.000001 0.000000 0.000000 0.000002 -0.000000 0.000000 0.000002 -0.000000 0.000000 0.000002 -0.000000 0.000000 0.000002 -0.000000 0.000000 0.000002 -0.000000 0.000000 0.000002 0.000000 0.000000 0.000001 -0.000002 0.000000 0.000001 -0.000002 -0.000000 -0.000000 -0.000003 -0.000001 -0.000001 0.000001 
2.992760 74.342209 1.790960 -0.442867 -41.637485 18.843435 0.000000 0.000000 0.000001 -19.538560 29.394156 -7.014615 54.344301 3.634072 1.988226 -26.489951 19.877439 -4.810832 -0.000000 -0.000000 -0.000000 0.000001 0.000001 0.000000 -0.000002 -0.000002 -0.000000 -35.740983 7.464197 -37.284271 68.187199 4.951976 -9.420215 -30.295796 -6.423162 20.753221 -0.000000 0.000000 -0.000000 -0.000001 0.000000 0.000000 0.000001 -0.000001 -0.000001 0.518746 -1.041232 7.672880 0.196460 -0.793552 5.000017 0.093392 -0.702943 4.982102 -11.340864 3.432823 6.607826 -18.475218 27.971496 -7.838860 0.000002 0.000001 0.000000 0.000002 0.000001 0.000000 0.000002 0.000001 0.000000 0.000002 0.000001 0.000000 0.000002 0.000001 0.000000 0.000002 0.000001 0.000000 0.000002 0.000001 0.000000 0.000002 0.000001 0.000000 0.000002 0.000001 0.000000 0.000002 0.000001 0.000000 0.000002 0.000001 0.000000 0.000002 0.000001 0.000000 0.000002 0.000001 0.000000 0.000002 0.000001 0.000000 0.000002 0.000001 0.000000 0.000002 0.000001 0.000000 0.000002 0.000001 0.000000 0.000002 0.000001 0.000000 0.000002 0.000001 0.000000 -0.812582 3.306763 12.932783 -30.510523 -33.820621 -46.309349 -0.000635 -91.652792 -0.000696 -24.475983 -12.258146 -3.030203 15.586972 -27.071573 5.859852 14.927348 35.881709 -28.509737 0.000001 0.000002 0.000002 0.243043 1.816734 -15.238229 0.413106 2.353352 -19.910008 -0.000001 -0.000001 0.000002 0.242534 1.814881 -15.222224 0.413765 2.355170 -19.926039 -0.000002 0.000003 -0.000006 0.243044 1.816741 -15.238222 0.413110 2.353374 -19.910008 0.000001 0.000001 0.000001 1.295646 5.732680 -14.797127 0.415833 -1.704563 -20.390792 0.000002 -0.000002 -0.000004 0.000000 -0.000000 -0.000001 0.016838 -5.810545 7.566564 117.834396 70.381438 -84.393797 0.000003 24.613639 0.000013 -21.332909 6.419918 -1.469745 40.606608 -3.110613 26.124232 -37.849514 -44.265001 -46.874950 -0.000001 0.000001 0.000001 3.635315 -6.110982 61.464449 7.728639 -6.904492 96.464428 -0.000001 -0.000001 0.000003 3.635323 -6.110987 61.464449 7.728616 -6.904464 96.464449 0.000003 0.000001 -0.000001 3.635338 -6.111005 61.464449 7.728628 -6.904456 96.464435 0.000004 0.000001 -0.000002 3.635350 -6.111015 61.464435 7.728582 -6.904426 96.464456 -0.000002 -0.000001 0.000001 -0.000003 0.000002 -0.000002 0.000000 -0.000001 -0.000000 0.000000 -0.000001 -0.000000 0.000000 -0.000001 -0.000000 0.000000 -0.000001 -0.000000 0.000000 -0.000001 -0.000000 0.000000 -0.000001 -0.000001 0.000002 -0.000002 -0.000006 0.000002 -0.000002 -0.000006 0.000000 0.000003 -0.000002 0.000000 0.000000 0.000001 
